<svg width="64" height="64" viewBox="0 0 64 64" fill="none" xmlns="http://www.w3.org/2000/svg">
  <!-- Briefcase/Profile -->
  <rect x="8" y="18" width="48" height="38" rx="4" stroke="currentColor" stroke-width="2" fill="none"/>
  <path d="M20 18V14C20 12.9 20.9 12 22 12H42C43.1 12 44 12.9 44 14V18" stroke="currentColor" stroke-width="2" fill="none"/>
  
  <!-- Person icon inside -->
  <circle cx="20" cy="25" r="2.5" fill="currentColor"/>
  <path d="M18 29C18 27.9 18.9 27 20 27H20C21.1 27 22 27.9 22 29V32C22 32.6 21.6 33 21 33H19C18.4 33 18 32.6 18 32V29Z" fill="currentColor"/>
  
  <!-- Second person -->
  <circle cx="32" cy="24" r="2.5" fill="currentColor"/>
  <path d="M30 28C30 26.9 30.9 26 32 26H32C33.1 26 34 26.9 34 28V31C34 31.6 33.6 32 33 32H31C30.4 32 30 31.6 30 31V28Z" fill="currentColor"/>
  
  <!-- Third person -->
  <circle cx="44" cy="25" r="2.5" fill="currentColor"/>
  <path d="M42 29C42 27.9 42.9 27 44 27H44C45.1 27 46 27.9 46 29V32C46 32.6 45.6 33 45 33H43C42.4 33 42 32.6 42 32V29Z" fill="currentColor"/>
  
  <!-- Checkmark -->
  <path d="M24 40L28 44L38 34" stroke="currentColor" stroke-width="2" stroke-linecap="round" stroke-linejoin="round" fill="none"/>
</svg>